<svg xmlns="http://www.w3.org/2000/svg"  viewBox="0 0 32 32" width="32px" height="32px"><path d="M 6 4 L 6 24 L 10 24 L 10 28 L 26 28 L 26 8 L 22 8 L 22 4 Z M 8 6 L 20 6 L 20 22 L 8 22 Z M 14 8 C 11.789063 8 10 9.789063 10 12 L 12 12 C 12 10.808594 12.808594 10 14 10 C 15.191406 10 16 10.808594 16 12 C 16 13.191406 15.191406 14 14 14 L 13 14 L 13 17 L 15 17 L 15 15.8125 C 16.714844 15.363281 18 13.855469 18 12 C 18 9.789063 16.210938 8 14 8 Z M 22 10 L 24 10 L 24 26 L 12 26 L 12 24 L 22 24 Z M 13 18 L 13 20 L 15 20 L 15 18 Z"/></svg>