<?xml version="1.0" encoding="UTF-8" standalone="no"?>
<svg
   id="Layer_1"
   data-name="Layer 1"
   viewBox="0 0 25 25"
   version="1.1"
   sodipodi:docname="pc.svg"
   inkscape:version="1.1.2 (0a00cf5339, 2022-02-04)"
   xmlns:inkscape="http://www.inkscape.org/namespaces/inkscape"
   xmlns:sodipodi="http://sodipodi.sourceforge.net/DTD/sodipodi-0.dtd"
   xmlns="http://www.w3.org/2000/svg"
   xmlns:svg="http://www.w3.org/2000/svg">
  <defs
     id="defs8" />
  <sodipodi:namedview
     id="namedview6"
     pagecolor="#ffffff"
     bordercolor="#666666"
     borderopacity="1.0"
     inkscape:pageshadow="2"
     inkscape:pageopacity="0.0"
     inkscape:pagecheckerboard="0"
     showgrid="false"
     inkscape:zoom="16.88"
     inkscape:cx="12.470379"
     inkscape:cy="12.5"
     inkscape:window-width="1280"
     inkscape:window-height="693"
     inkscape:window-x="0"
     inkscape:window-y="0"
     inkscape:window-maximized="1"
     inkscape:current-layer="Layer_1" />
  <title
     id="title2">Desktop Computer</title>
  <path
     id="Desktop_Computer"
     data-name="Desktop Computer"
     d="M 16.19535,22.377674 V 19.670429 H 8.4061575 v 2.707245 H 5.8097601 v 0.902414 H 18.791747 V 22.377674 Z M 22.037244,2.5245483 H 2.5642634 A 1.0818322,1.1280185 0 0 0 1.4824311,3.6525668 V 17.639995 a 1.0818322,1.1280185 0 0 0 1.0818323,1.128019 H 22.037244 a 1.0818322,1.1280185 0 0 0 1.081832,-1.128019 V 3.6525668 A 1.0818322,1.1280185 0 0 0 22.037244,2.5245483 Z M 13.598952,17.414392 a 0.4327329,0.45120738 0 0 1 -0.432733,0.451207 h -1.730931 a 0.4327329,0.45120738 0 0 1 -0.432734,-0.451207 v -0.902415 a 0.4327329,0.45120738 0 0 1 0.432734,-0.451207 h 1.730931 a 0.4327329,0.45120738 0 0 1 0.432733,0.451207 z m 7.789192,-2.256037 H 3.2133627 V 4.5549816 c 0,-0.1263382 0,-0.2256037 0.1038559,-0.2256037 H 21.284288 c 0.112511,0 0.103856,0.099266 0.103856,0.2256037 z"
     fill="#0e1d25"
     style="stroke-width:0.883747" />
</svg>
