<?xml version="1.0" encoding="UTF-8" standalone="no"?>
<svg
   width="24"
   height="24"
   version="1.1"
   viewBox="0 0 24 24"
   id="svg4"
   sodipodi:docname="sb-boom.svg"
   inkscape:version="1.1.2 (0a00cf5339, 2022-02-04)"
   xmlns:inkscape="http://www.inkscape.org/namespaces/inkscape"
   xmlns:sodipodi="http://sodipodi.sourceforge.net/DTD/sodipodi-0.dtd"
   xmlns="http://www.w3.org/2000/svg"
   xmlns:svg="http://www.w3.org/2000/svg">
  <defs
     id="defs8" />
  <sodipodi:namedview
     id="namedview6"
     pagecolor="#ffffff"
     bordercolor="#666666"
     borderopacity="1.0"
     inkscape:pageshadow="2"
     inkscape:pageopacity="0.0"
     inkscape:pagecheckerboard="0"
     showgrid="false"
     inkscape:zoom="17.583333"
     inkscape:cx="11.971564"
     inkscape:cy="12"
     inkscape:window-width="1280"
     inkscape:window-height="693"
     inkscape:window-x="0"
     inkscape:window-y="0"
     inkscape:window-maximized="1"
     inkscape:current-layer="svg4" />
  <path
     d="m 7.0233264,4.0427281 -2,2 v 1 h -2 a 1,1 0 0 0 -1,1 v 7.9999999 a 1,1 0 0 0 1,1 H 21.023326 a 1,1 0 0 0 1,-1 V 8.0427281 a 1,1 0 0 0 -1,-1 h -2 v -1 l -2,-2 H 7.0233264 m 0,2 h 9.9999996 v 1 H 7.0233264 v -1 m 3.9999996,2 h 2 a 0.5,0.5 0 0 1 0.5,0.5 0.5,0.5 0 0 1 -0.5,0.5 h -2 a 0.5,0.5 0 0 1 -0.5,-0.5 0.5,0.5 0 0 1 0.5,-0.5 m -3.4999996,1.5 a 3,3 0 0 1 2.9999996,2.9999999 3,3 0 0 1 -2.9999996,3 3,3 0 0 1 -3,-3 3,3 0 0 1 3,-2.9999999 m 8.9999996,0 a 3,3 0 0 1 3,2.9999999 3,3 0 0 1 -3,3 3,3 0 0 1 -3,-3 3,3 0 0 1 3,-2.9999999 M 7.5233264,11.042728 a 1.5,1.5 0 0 0 -1.5,1.5 1.5,1.5 0 0 0 1.5,1.5 1.5,1.5 0 0 0 1.5,-1.5 1.5,1.5 0 0 0 -1.5,-1.5 m 8.9999996,0 a 1.5,1.5 0 0 0 -1.5,1.5 1.5,1.5 0 0 0 1.5,1.5 1.5,1.5 0 0 0 1.5,-1.5 1.5,1.5 0 0 0 -1.5,-1.5 z"
     fill="#000000"
     id="path2" />
</svg>
