<?xml version="1.0" encoding="UTF-8" standalone="no"?>
<!-- Generator: Adobe Illustrator 16.0.0, SVG Export Plug-In . SVG Version: 6.00 Build 0)  -->

<svg
   version="1.1"
   x="0px"
   y="0px"
   width="512px"
   height="512px"
   viewBox="0 0 512 512"
   style="enable-background:new 0 0 512 512;"
   xml:space="preserve"
   id="svg20"
   sodipodi:docname="sb-classic.svg"
   inkscape:version="1.1.2 (0a00cf5339, 2022-02-04)"
   xmlns:inkscape="http://www.inkscape.org/namespaces/inkscape"
   xmlns:sodipodi="http://sodipodi.sourceforge.net/DTD/sodipodi-0.dtd"
   xmlns="http://www.w3.org/2000/svg"
   xmlns:svg="http://www.w3.org/2000/svg"><defs
   id="defs24" /><sodipodi:namedview
   id="namedview22"
   pagecolor="#ffffff"
   bordercolor="#666666"
   borderopacity="1.0"
   inkscape:pageshadow="2"
   inkscape:pageopacity="0.0"
   inkscape:pagecheckerboard="0"
   showgrid="false"
   inkscape:zoom="0.82421875"
   inkscape:cx="199.58294"
   inkscape:cy="256"
   inkscape:window-width="1280"
   inkscape:window-height="693"
   inkscape:window-x="0"
   inkscape:window-y="0"
   inkscape:window-maximized="1"
   inkscape:current-layer="g14" />
<g
   id="C746_x2C__Amplifier_x2C__media_x2C__player">
	<g
   id="g16">
		<g
   id="g14">
			<polygon
   style="fill:#000000"
   points="56,356 96,356 416,356 456,356 486,356 486,116 26,116 26,356 "
   id="polygon2"
   transform="translate(5.5450237,26.170616)" />
			<path
   style="display:inline;fill:#ffffff"
   d="m 269.49289,300.32702 c 11.05,0 20,8.95 20,20 0,11.05 -8.95,20 -20,20 -11.05,0 -20,-8.95 -20,-20 0,-11.05 8.95,-20 20,-20 z"
   id="path4"
   inkscape:highlight-color="1912537091" />
			<rect
   x="58.257435"
   y="166.09718"
   style="opacity:1;fill:#ffffff;stroke-width:1.3438"
   width="408.46295"
   height="100.79855"
   id="rect6" />
			<rect
   x="61.545025"
   y="382.17062"
   style="fill:#262626;stroke-width:0.672232"
   width="40"
   height="18.075829"
   id="rect8" />
			<rect
   x="421.54501"
   y="382.17062"
   style="fill:#262626;stroke-width:0.654641"
   width="40"
   height="17.142179"
   id="rect10" />
			
		</g>
	</g>
</g>
<g
   id="Layer_1">
</g>
</svg>
