<?xml version="1.0" encoding="UTF-8" standalone="no"?>
<svg
   version="1.1"
   width="24"
   height="24"
   viewBox="0 0 24 24"
   id="svg4"
   sodipodi:docname="sb-radio.svg"
   inkscape:version="1.1.2 (0a00cf5339, 2022-02-04)"
   xmlns:inkscape="http://www.inkscape.org/namespaces/inkscape"
   xmlns:sodipodi="http://sodipodi.sourceforge.net/DTD/sodipodi-0.dtd"
   xmlns="http://www.w3.org/2000/svg"
   xmlns:svg="http://www.w3.org/2000/svg">
  <defs
     id="defs8" />
  <sodipodi:namedview
     id="namedview6"
     pagecolor="#ffffff"
     bordercolor="#666666"
     borderopacity="1.0"
     inkscape:pageshadow="2"
     inkscape:pageopacity="0.0"
     inkscape:pagecheckerboard="0"
     showgrid="false"
     inkscape:zoom="17.583333"
     inkscape:cx="11.971564"
     inkscape:cy="12"
     inkscape:window-width="1280"
     inkscape:window-height="693"
     inkscape:window-x="0"
     inkscape:window-y="0"
     inkscape:window-maximized="1"
     inkscape:current-layer="svg4" />
  <path
     d="m 20,5.5759127 a 2,1.8303651 0 0 1 2,1.8303651 V 18.388468 a 2,1.8303651 0 0 1 -2,1.830365 H 4 A 2,1.8303651 0 0 1 2,18.388468 V 7.4062778 C 2,6.6283727 2.53,5.9602894 3.28,5.6948865 L 15.71,1 16.47,2.6747841 8.83,5.5759127 H 20 m 0,1.8303651 H 4 V 11.067008 H 16 V 9.2366429 h 2 v 1.8303651 h 2 V 7.4062778 M 7,12.897373 a 3,2.7455476 0 0 0 -3,2.745548 3,2.7455476 0 0 0 3,2.745547 3,2.7455476 0 0 0 3,-2.745547 3,2.7455476 0 0 0 -3,-2.745548 z"
     fill="#000000"
     id="path2"
     style="stroke-width:0.956652" />
</svg>
