<?xml version="1.0" encoding="UTF-8" standalone="no"?>
<svg
   width="24"
   height="24"
   version="1.1"
   viewBox="0 0 24 24"
   id="svg35"
   sodipodi:docname="sb-receiver.svg"
   inkscape:version="1.2.2 (b0a8486541, 2022-12-01)"
   xmlns:inkscape="http://www.inkscape.org/namespaces/inkscape"
   xmlns:sodipodi="http://sodipodi.sourceforge.net/DTD/sodipodi-0.dtd"
   xmlns="http://www.w3.org/2000/svg"
   xmlns:svg="http://www.w3.org/2000/svg">
  <defs
     id="defs39" />
  <sodipodi:namedview
     id="namedview37"
     pagecolor="#ffffff"
     bordercolor="#000000"
     borderopacity="0.25"
     inkscape:showpageshadow="2"
     inkscape:pageopacity="0.0"
     inkscape:pagecheckerboard="0"
     inkscape:deskcolor="#d1d1d1"
     showgrid="false"
     inkscape:zoom="26.083333"
     inkscape:cx="12"
     inkscape:cy="12.019169"
     inkscape:window-width="1536"
     inkscape:window-height="795"
     inkscape:window-x="0"
     inkscape:window-y="32"
     inkscape:window-maximized="1"
     inkscape:current-layer="svg35" />
  <path
     d="m5 15.5a0.5 0.5 0 0 1-0.5 0.5h-1a0.5 0.5 0 0 1-0.5-0.5v-0.5h-1a1 1 0 0 1-1-1v-3a1 1 0 0 1 1-1h20a1 1 0 0 1 1 1v3a1 1 0 0 1-1 1h-1v0.5a0.5 0.5 0 0 1-0.5 0.5h-1a0.5 0.5 0 0 1-0.5-0.5v-0.5h-14v0.5m-2-3.5v1h2v-1h-2m3 0v1h2v-1h-2m14.5-0.5a1 1 0 0 0-1 1 1 1 0 0 0 1 1 1 1 0 0 0 1-1 1 1 0 0 0-1-1z"
     fill="#000"
     id="path33"
     style="fill:#e6e6e6" />
</svg>
