<?xml version="1.0" encoding="UTF-8" standalone="no"?>
<svg
   width="13px"
   height="18px"
   viewBox="0 0 13 18"
   version="1.1"
   id="svg12"
   sodipodi:docname="sb-touch.svg"
   inkscape:version="1.1.2 (0a00cf5339, 2022-02-04)"
   xmlns:inkscape="http://www.inkscape.org/namespaces/inkscape"
   xmlns:sodipodi="http://sodipodi.sourceforge.net/DTD/sodipodi-0.dtd"
   xmlns="http://www.w3.org/2000/svg"
   xmlns:svg="http://www.w3.org/2000/svg">
  <sodipodi:namedview
     id="namedview14"
     pagecolor="#ffffff"
     bordercolor="#666666"
     borderopacity="1.0"
     inkscape:pageshadow="2"
     inkscape:pageopacity="0.0"
     inkscape:pagecheckerboard="0"
     showgrid="false"
     inkscape:zoom="23.444444"
     inkscape:cx="6.5047393"
     inkscape:cy="9"
     inkscape:window-width="1280"
     inkscape:window-height="693"
     inkscape:window-x="0"
     inkscape:window-y="0"
     inkscape:window-maximized="1"
     inkscape:current-layer="svg12" />
  <!-- Generator: Sketch 3.8.1 (29687) - http://www.bohemiancoding.com/sketch -->
  <title
     id="title2">tap_click_force_touch [#1383]</title>
  <desc
     id="desc4">Created with Sketch.</desc>
  <defs
     id="defs6" />
  <g
     id="Page-1"
     stroke="none"
     stroke-width="1"
     fill="none"
     fill-rule="evenodd"
     transform="matrix(0.77942058,0,0,0.88458051,1.4032509,0.88940285)">
    <g
       id="Dribbble-Light-Preview"
       transform="translate(-343,-760)"
       fill="#000000">
      <g
         id="icons"
         transform="translate(56,160)">
        <path
           d="m 298.47999,610.79211 -4.79731,-0.39255 -0.008,-4.9749 c 0,-0.34817 -0.32552,-0.9863 -1.11544,-0.9863 -0.61328,0 -1.11545,0.44186 -1.11545,0.9863 v 8.37863 l -0.92546,-1.17567 c -0.39219,-0.49513 -1.18989,-0.55726 -1.67206,-0.12921 -0.37441,0.33337 -0.42663,0.8571 -0.12444,1.24373 l 2.39866,3.95507 c 0.20776,0.26728 0.54994,0.30279 0.91547,0.30279 h 5.37169 c 1.0599,0 1.97203,-0.54049 2.17979,-1.4617 l 0.36885,-3.5497 c 0.21998,-0.97545 -0.41329,-1.88186 -1.47652,-2.19649 M 288.111,607.39726 c -0.61327,0 -1.111,-0.44088 -1.111,-0.9863 v -1.23288 c 0,-6.90411 11.11003,-6.90411 11.11003,0 v 1.23288 c 0,0.54542 -0.49773,0.9863 -1.11101,0.9863 -0.61327,0 -1.111,-0.44088 -1.111,-0.9863 v -1.23288 c 0,-3.9452 -6.66601,-3.9452 -6.66601,0 v 1.23288 c 0,0.54542 -0.49773,0.9863 -1.11101,0.9863"
           id="tap_click_force_touch-[#1383]" />
      </g>
    </g>
  </g>
</svg>
