<?xml version="1.0" encoding="UTF-8" standalone="no"?>
<svg
   width="24"
   height="24"
   version="1.1"
   viewBox="0 0 24 24"
   id="svg52"
   sodipodi:docname="sb-transporter.svg"
   inkscape:version="1.2.2 (b0a8486541, 2022-12-01)"
   xmlns:inkscape="http://www.inkscape.org/namespaces/inkscape"
   xmlns:sodipodi="http://sodipodi.sourceforge.net/DTD/sodipodi-0.dtd"
   xmlns="http://www.w3.org/2000/svg"
   xmlns:svg="http://www.w3.org/2000/svg">
  <defs
     id="defs56" />
  <sodipodi:namedview
     id="namedview54"
     pagecolor="#ffffff"
     bordercolor="#000000"
     borderopacity="0.25"
     inkscape:showpageshadow="2"
     inkscape:pageopacity="0.0"
     inkscape:pagecheckerboard="0"
     inkscape:deskcolor="#d1d1d1"
     showgrid="false"
     inkscape:zoom="26.083333"
     inkscape:cx="12"
     inkscape:cy="12.019169"
     inkscape:window-width="1536"
     inkscape:window-height="795"
     inkscape:window-x="0"
     inkscape:window-y="32"
     inkscape:window-maximized="1"
     inkscape:current-layer="svg52" />
  <path
     d="m20 7h-16a2 2 0 0 0-2 2v6a2 2 0 0 0 2 2h1v1c0 0.6 0.4 1 1 1h2c0.6 0 1-0.4 1-1v-1h6v1c0 0.6 0.4 1 1 1h2c0.6 0 1-0.4 1-1v-1h1a2 2 0 0 0 2-2v-6a2 2 0 0 0-2-2m-6 5h-10v-2h10v2m4 1a2 2 0 0 1-2-2 2 2 0 0 1 2-2 2 2 0 0 1 2 2 2 2 0 0 1-2 2m-12 2h-2v-1h2v1m4 0h-2v-1h2v1m4 0h-2v-1h2v1z"
     fill="#000"
     id="path50"
     style="fill:#e6e6e6" />
</svg>
